{
    "asset" : {
        "generator" : "Khronos glTF Blender I/O v1.6.16",
        "version" : "2.0"
    },
    "scene" : 0,
    "scenes" : [
        {
            "name" : "Scene",
            "nodes" : [
                0
            ]
        }
    ],
    "nodes" : [
        {
            "mesh" : 0,
            "name" : "Icosphere.003",
            "scale" : [
                1.0593613386154175,
                1.0593613386154175,
                1.0593613386154175
            ],
            "translation" : [
                0,
                0,
                6.278791427612305
            ]
        }
    ],
    "meshes" : [
        {
            "name" : "Icosphere.003",
            "primitives" : [
                {
                    "attributes" : {
                        "POSITION" : 0,
                        "NORMAL" : 1,
                        "TEXCOORD_0" : 2
                    },
                    "indices" : 3
                }
            ]
        }
    ],
    "accessors" : [
        {
            "bufferView" : 0,
            "componentType" : 5126,
            "count" : 8528,
            "max" : [
                0.9250988960266113,
                0.9598818421363831,
                0.9572897553443909
            ],
            "min" : [
                -0.9296063780784607,
                -0.9302674531936646,
                -0.866347074508667
            ],
            "type" : "VEC3"
        },
        {
            "bufferView" : 1,
            "componentType" : 5126,
            "count" : 8528,
            "type" : "VEC3"
        },
        {
            "bufferView" : 2,
            "componentType" : 5126,
            "count" : 8528,
            "type" : "VEC2"
        },
        {
            "bufferView" : 3,
            "componentType" : 5123,
            "count" : 12792,
            "type" : "SCALAR"
        }
    ],
    "bufferViews" : [
        {
            "buffer" : 0,
            "byteLength" : 102336,
            "byteOffset" : 0
        },
        {
            "buffer" : 0,
            "byteLength" : 102336,
            "byteOffset" : 102336
        },
        {
            "buffer" : 0,
            "byteLength" : 68224,
            "byteOffset" : 204672
        },
        {
            "buffer" : 0,
            "byteLength" : 25584,
            "byteOffset" : 272896
        }
    ],
    "buffers" : [
        {
            "byteLength" : 298480,
            "uri" : "data:application/octet-stream;base64,"
        }
    ]
}
