{
    "asset" : {
        "generator" : "Khronos glTF Blender I/O v1.6.16",
        "version" : "2.0"
    },
    "scene" : 0,
    "scenes" : [
        {
            "name" : "Scene",
            "nodes" : [
                0
            ]
        }
    ],
    "nodes" : [
        {
            "mesh" : 0,
            "name" : "Icosphere.002",
            "scale" : [
                1.0593613386154175,
                1.0593613386154175,
                1.0593613386154175
            ],
            "translation" : [
                0,
                0,
                3.0253262519836426
            ]
        }
    ],
    "meshes" : [
        {
            "name" : "Icosphere.002",
            "primitives" : [
                {
                    "attributes" : {
                        "POSITION" : 0,
                        "NORMAL" : 1,
                        "TEXCOORD_0" : 2
                    },
                    "indices" : 3
                }
            ]
        }
    ],
    "accessors" : [
        {
            "bufferView" : 0,
            "componentType" : 5126,
            "count" : 9128,
            "max" : [
                0.9445807337760925,
                0.9721888303756714,
                0.9715726971626282
            ],
            "min" : [
                -0.9423078894615173,
                -0.9450562000274658,
                -0.9027954339981079
            ],
            "type" : "VEC3"
        },
        {
            "bufferView" : 1,
            "componentType" : 5126,
            "count" : 9128,
            "type" : "VEC3"
        },
        {
            "bufferView" : 2,
            "componentType" : 5126,
            "count" : 9128,
            "type" : "VEC2"
        },
        {
            "bufferView" : 3,
            "componentType" : 5123,
            "count" : 13692,
            "type" : "SCALAR"
        }
    ],
    "bufferViews" : [
        {
            "buffer" : 0,
            "byteLength" : 109536,
            "byteOffset" : 0
        },
        {
            "buffer" : 0,
            "byteLength" : 109536,
            "byteOffset" : 109536
        },
        {
            "buffer" : 0,
            "byteLength" : 73024,
            "byteOffset" : 219072
        },
        {
            "buffer" : 0,
            "byteLength" : 27384,
            "byteOffset" : 292096
        }
    ],
    "buffers" : [
        {
            "byteLength" : 319480,
            "uri" : "data:application/octet-stream;base64,"
        }
    ]
}
